<?xml version="1.0" encoding="UTF-8" standalone="no"?>
<!-- Created with Vectornator (http://vectornator.io/) -->

<svg
   height="314"
   stroke-miterlimit="10"
   style="clip-rule:evenodd;fill-rule:nonzero;stroke-linecap:round;stroke-linejoin:round"
   version="1.1"
   viewBox="0 0 164 314"
   width="164"
   xml:space="preserve"
   id="svg9"
   sodipodi:docname="inno_setup_large.svg"
   inkscape:version="1.3.2 (091e20ef0f, 2023-11-25, custom)"
   inkscape:export-filename="inno_setup_large.png"
   inkscape:export-xdpi="96"
   inkscape:export-ydpi="96"
   xmlns:inkscape="http://www.inkscape.org/namespaces/inkscape"
   xmlns:sodipodi="http://sodipodi.sourceforge.net/DTD/sodipodi-0.dtd"
   xmlns="http://www.w3.org/2000/svg"
   xmlns:svg="http://www.w3.org/2000/svg"
   xmlns:vectornator="http://vectornator.io"><sodipodi:namedview
   id="namedview9"
   pagecolor="#ffffff"
   bordercolor="#000000"
   borderopacity="0.25"
   inkscape:showpageshadow="2"
   inkscape:pageopacity="0.0"
   inkscape:pagecheckerboard="0"
   inkscape:deskcolor="#d1d1d1"
   showgrid="true"
   inkscape:zoom="2.6112"
   inkscape:cx="98.422181"
   inkscape:cy="156.63297"
   inkscape:window-width="1920"
   inkscape:window-height="1020"
   inkscape:window-x="0"
   inkscape:window-y="0"
   inkscape:window-maximized="1"
   inkscape:current-layer="svg9"><inkscape:grid
     id="grid9"
     units="px"
     originx="0"
     originy="0"
     spacingx="1"
     spacingy="1"
     empcolor="#0099e5"
     empopacity="0.30196078"
     color="#0099e5"
     opacity="0.14901961"
     empspacing="5"
     dotted="false"
     gridanglex="30"
     gridanglez="30"
     visible="true" /></sodipodi:namedview>
<defs
   id="defs1"><inkscape:path-effect
     effect="fillet_chamfer"
     id="path-effect1"
     is_visible="true"
     lpeversion="1"
     nodesatellites_param="F,0,1,1,0,139.09754,0,1 @ F,0,0,1,0,139.09754,0,1 @ F,0,1,1,0,139.09754,0,1 @ F,0,1,1,0,139.09754,0,1"
     radius="0"
     unit="px"
     method="auto"
     mode="F"
     chamfer_steps="1"
     flexible="false"
     use_knot_distance="true"
     apply_no_radius="true"
     apply_with_radius="true"
     only_selected="false"
     hide_knots="false" /></defs>
<clipPath
   id="ArtboardFrame">
<rect
   height="625"
   width="624"
   x="0"
   y="0"
   id="rect1" />
</clipPath>
<g
   clip-path="url(#ArtboardFrame)"
   id="Layer-1"
   vectornator:layerName="Layer 1"
   transform="matrix(0.26282051,0,0,0.26282051,0,-0.26282051)">
<path
   d="M 139.09754,1 H 484.90246 A 139.09754,139.09754 45 0 1 624,140.09754 V 486.90246 A 139.09754,139.09754 135 0 1 484.90246,626 H 139.09754 A 139.09754,139.09754 45 0 1 0,486.90246 V 140.09754 A 139.09754,139.09754 135 0 1 139.09754,1 Z"
   fill="#1260d3"
   fill-rule="nonzero"
   opacity="1"
   stroke="none"
   vectornator:layerName="Rectangle 1"
   id="path1"
   inkscape:path-effect="#path-effect1"
   inkscape:original-d="M 0,1 H 624 V 626 H 0 Z" />
<g
   fill="#ffffff"
   opacity="1"
   stroke="none"
   vectornator:layerName="Text 2"
   id="g8">
<path
   d="m 123.256,288.483 c 5.892,0 10.686,1.433 14.38,4.297 3.695,2.865 5.917,7.796 6.665,14.795 h -8.545 c -0.52,-3.223 -1.709,-5.9 -3.564,-8.032 -1.855,-2.132 -4.834,-3.198 -8.936,-3.198 -5.599,0 -9.602,2.734 -12.011,8.203 -1.563,3.548 -2.344,7.926 -2.344,13.134 0,5.241 1.107,9.652 3.32,13.233 2.214,3.581 5.697,5.371 10.449,5.371 3.646,0 6.535,-1.115 8.667,-3.345 2.133,-2.23 3.606,-5.281 4.419,-9.155 h 8.545 c -0.976,6.934 -3.418,12.004 -7.324,15.21 -3.906,3.206 -8.903,4.81 -14.99,4.81 -6.836,0 -12.289,-2.499 -16.358,-7.496 -4.069,-4.996 -6.103,-11.238 -6.103,-18.725 0,-9.18 2.23,-16.325 6.689,-21.436 4.46,-5.11 10.14,-7.666 17.041,-7.666 z"
   id="path2" />
<path
   d="m 173.842,336.628 c 5.827,0 9.823,-2.206 11.988,-6.616 2.164,-4.411 3.247,-9.318 3.247,-14.722 0,-4.883 -0.782,-8.854 -2.344,-11.914 -2.474,-4.818 -6.738,-7.227 -12.793,-7.227 -5.371,0 -9.277,2.051 -11.719,6.153 -2.441,4.101 -3.662,9.049 -3.662,14.843 0,5.567 1.221,10.205 3.662,13.916 2.442,3.711 6.315,5.567 11.621,5.567 z m 0.342,-48.145 c 6.738,0 12.435,2.246 17.09,6.739 4.655,4.492 6.982,11.1 6.982,19.824 0,8.431 -2.05,15.397 -6.152,20.898 -4.101,5.501 -10.465,8.252 -19.092,8.252 -7.194,0 -12.907,-2.433 -17.138,-7.3 -4.232,-4.866 -6.348,-11.401 -6.348,-19.604 0,-8.789 2.23,-15.788 6.689,-20.996 4.46,-5.209 10.45,-7.813 17.969,-7.813 z"
   id="path3" />
<path
   d="m 208.706,289.997 h 8.691 v 7.422 c 2.083,-2.572 3.971,-4.444 5.664,-5.615 2.897,-1.986 6.185,-2.979 9.863,-2.979 4.167,0 7.52,1.025 10.059,3.076 1.432,1.172 2.734,2.897 3.906,5.176 1.953,-2.799 4.248,-4.875 6.885,-6.226 2.637,-1.35 5.599,-2.026 8.887,-2.026 7.031,0 11.816,2.539 14.355,7.617 1.367,2.735 2.051,6.413 2.051,11.035 v 34.815 h -9.131 v -36.328 c 0,-3.483 -0.871,-5.876 -2.612,-7.178 -1.742,-1.302 -3.866,-1.953 -6.372,-1.953 -3.451,0 -6.421,1.155 -8.911,3.467 -2.491,2.311 -3.736,6.168 -3.736,11.572 v 30.42 h -8.935 v -34.131 c 0,-3.548 -0.423,-6.136 -1.27,-7.764 -1.334,-2.441 -3.825,-3.662 -7.471,-3.662 -3.32,0 -6.339,1.286 -9.057,3.858 -2.718,2.571 -4.077,7.226 -4.077,13.964 v 27.735 h -8.789 z"
   id="path4" />
<path
   d="m 292.006,289.997 h 8.692 v 7.422 c 2.083,-2.572 3.971,-4.444 5.664,-5.615 2.897,-1.986 6.185,-2.979 9.863,-2.979 4.167,0 7.52,1.025 10.059,3.076 1.432,1.172 2.734,2.897 3.906,5.176 1.953,-2.799 4.248,-4.875 6.885,-6.226 2.637,-1.35 5.599,-2.026 8.887,-2.026 7.031,0 11.816,2.539 14.355,7.617 1.367,2.735 2.051,6.413 2.051,11.035 v 34.815 h -9.131 v -36.328 c 0,-3.483 -0.871,-5.876 -2.612,-7.178 -1.742,-1.302 -3.866,-1.953 -6.372,-1.953 -3.451,0 -6.421,1.155 -8.912,3.467 -2.49,2.311 -3.735,6.168 -3.735,11.572 v 30.42 h -8.936 v -34.131 c 0,-3.548 -0.423,-6.136 -1.269,-7.764 -1.335,-2.441 -3.825,-3.662 -7.471,-3.662 -3.32,0 -6.339,1.286 -9.057,3.858 -2.718,2.571 -4.078,7.226 -4.078,13.964 v 27.735 h -8.789 z"
   id="path5" />
<path
   d="m 384.096,289.997 v 34.717 c 0,2.669 0.423,4.85 1.27,6.543 1.562,3.125 4.476,4.687 8.74,4.687 6.12,0 10.287,-2.734 12.5,-8.203 1.204,-2.93 1.807,-6.95 1.807,-12.06 v -25.684 h 8.789 v 52.295 h -8.301 l 0.098,-7.715 c -1.14,1.986 -2.556,3.662 -4.248,5.029 -3.353,2.735 -7.422,4.102 -12.207,4.102 -7.455,0 -12.533,-2.49 -15.235,-7.471 -1.465,-2.669 -2.197,-6.234 -2.197,-10.693 v -35.547 z"
   id="path6" />
<path
   d="m 430.922,289.997 h 8.35 v 7.422 c 2.474,-3.06 5.094,-5.257 7.861,-6.592 2.767,-1.335 5.843,-2.002 9.229,-2.002 7.422,0 12.435,2.588 15.039,7.764 1.432,2.832 2.148,6.884 2.148,12.158 v 33.545 h -8.935 v -32.959 c 0,-3.19 -0.472,-5.762 -1.416,-7.715 -1.563,-3.255 -4.395,-4.883 -8.496,-4.883 -2.084,0 -3.793,0.212 -5.127,0.635 -2.409,0.716 -4.525,2.148 -6.348,4.297 -1.465,1.725 -2.417,3.507 -2.856,5.347 -0.44,1.839 -0.659,4.467 -0.659,7.885 v 27.393 h -8.79 z"
   id="path7" />
<path
   d="m 493.276,328.376 c 0,2.539 0.928,4.541 2.783,6.006 1.856,1.465 4.053,2.197 6.592,2.197 3.092,0 6.087,-0.716 8.984,-2.148 4.883,-2.377 7.325,-6.267 7.325,-11.67 v -7.08 c -1.075,0.683 -2.458,1.253 -4.151,1.709 -1.693,0.455 -3.353,0.781 -4.98,0.976 l -5.323,0.684 c -3.19,0.423 -5.582,1.09 -7.177,2.002 -2.702,1.53 -4.053,3.971 -4.053,7.324 z m 21.289,-17.774 c 2.018,-0.26 3.369,-1.106 4.053,-2.539 0.39,-0.781 0.586,-1.904 0.586,-3.369 0,-2.995 -1.066,-5.167 -3.199,-6.518 -2.132,-1.351 -5.183,-2.027 -9.155,-2.027 -4.59,0 -7.845,1.237 -9.765,3.711 -1.075,1.367 -1.775,3.402 -2.1,6.104 h -8.203 c 0.163,-6.446 2.254,-10.93 6.274,-13.452 4.02,-2.523 8.684,-3.785 13.989,-3.785 6.153,0 11.15,1.172 14.991,3.516 3.808,2.344 5.713,5.99 5.713,10.938 v 30.126 c 0,0.912 0.187,1.644 0.561,2.198 0.374,0.553 1.164,0.83 2.368,0.83 0.391,0 0.83,-0.025 1.319,-0.073 0.488,-0.049 1.009,-0.122 1.562,-0.22 v 6.494 c -1.367,0.391 -2.409,0.635 -3.125,0.732 -0.716,0.098 -1.693,0.147 -2.93,0.147 -3.027,0 -5.224,-1.074 -6.591,-3.223 -0.716,-1.139 -1.221,-2.75 -1.514,-4.834 -1.79,2.344 -4.362,4.379 -7.715,6.104 -3.353,1.725 -7.047,2.588 -11.084,2.588 -4.85,0 -8.813,-1.473 -11.889,-4.419 -3.077,-2.946 -4.615,-6.633 -4.615,-11.06 0,-4.85 1.514,-8.61 4.541,-11.279 3.028,-2.669 6.999,-4.313 11.914,-4.932 z"
   id="path8" />
</g>
<path
   d="m 412.978,713.138 8.659,26.398 9.051,-26.398 h 5.964 l -12.23,32.422 h -5.813 l -11.958,-32.422 z"
   fill="#ffffff"
   fill-opacity="0.71998"
   opacity="1"
   stroke="none"
   vectornator:layerName="Text 4"
   id="path9" />
</g>
</svg>
